<svg width="245" height="245" viewBox="0 0 245 245" fill="none" xmlns="http://www.w3.org/2000/svg">
<path d="M234.5 123.5C174.5 219 205 246 123.5 231.5C28.5 241 79 218 12.0002 133.5C-6.5 63 55.4155 5 125.279 5C195.144 5 234.5 53.636 234.5 123.5Z" fill="#F5F2EE"/>
<path d="M164.528 244.724C160.715 244.724 156.967 243.948 153.348 242.397C149.341 240.717 145.852 238.132 143.138 235.03C142.039 236.258 140.811 237.421 139.519 238.52C132.863 243.883 124.204 245.887 115.673 244.013C109.728 242.72 104.558 239.425 100.746 234.966C97.967 238.132 94.4774 240.717 90.4708 242.397C78.9681 247.308 65.9144 244.271 55.4457 234.19C46.6571 225.789 41.6166 213.576 41.6166 200.781V187.985C41.6166 186.951 41.0996 185.918 40.1303 185.142C14.6046 165.045 0 136.288 0 106.368C0 47.691 54.8641 0 122.329 0C189.795 0 244.659 47.691 244.659 106.368C244.659 136.676 229.731 165.562 203.753 185.724C202.784 186.499 202.202 187.533 202.202 188.567V200.781C202.202 213.576 197.162 225.789 188.373 234.19C181.2 241.105 172.799 244.724 164.528 244.724ZM142.944 209.117C146.821 209.117 149.923 212.219 149.923 216.096C149.923 221.977 153.413 227.211 158.776 229.537C165.045 232.252 172.282 230.248 178.68 224.109C184.754 218.293 188.179 209.828 188.179 200.781V188.567C188.179 183.139 190.7 178.098 195.094 174.673C217.712 157.225 230.636 132.281 230.636 106.368C230.636 55.4457 182.04 13.9584 122.265 13.9584C62.4895 13.9584 13.8937 55.3811 13.8937 106.368C13.8937 132.023 26.5596 156.708 48.725 174.156C53.0547 177.581 55.5103 182.622 55.5103 187.985V200.781C55.5103 209.828 58.9999 218.293 65.0097 224.109C71.4073 230.248 78.645 232.187 84.9133 229.537C90.3416 227.211 93.7665 221.977 93.7665 216.096C93.7665 212.219 96.8684 209.117 100.746 209.117C104.623 209.117 107.725 212.219 107.725 216.096C107.725 223.011 112.313 228.956 118.581 230.313C122.976 231.282 127.241 230.313 130.666 227.599C134.026 224.885 135.9 220.878 135.9 216.613V216.096C135.965 212.283 139.131 209.117 142.944 209.117Z" fill="#060607"/>
<path d="M168.987 66.4319C151.539 66.4319 137.387 80.5841 137.387 98.0321V117.225C137.387 124.075 142.944 129.632 149.794 129.632H168.987C186.435 129.632 200.587 115.48 200.587 98.0321C200.652 80.5841 186.5 66.4319 168.987 66.4319Z" fill="#060607"/>
<path d="M107.143 117.225V98.0321C107.143 80.5841 92.9907 66.4319 75.5428 66.4319C58.0948 66.4319 43.9426 80.5841 43.9426 98.0321C43.9426 115.48 58.0948 129.632 75.5428 129.632H94.7355C101.585 129.697 107.143 124.075 107.143 117.225Z" fill="#060607"/>
<path d="M146.628 172.412C146.628 172.153 146.628 171.895 146.628 171.701C146.628 171.443 146.563 171.184 146.563 170.926C146.563 170.861 146.563 170.732 146.499 170.667C146.499 170.538 146.434 170.409 146.434 170.344C146.305 169.698 146.111 169.116 145.852 168.535L144.043 165.11C143.591 165.11 143.138 165.11 142.751 165.174H142.621C142.557 165.174 142.492 165.174 142.427 165.239C142.298 165.239 142.169 165.304 142.04 165.304C141.2 165.562 140.424 165.885 139.778 166.402C139.455 166.661 139.132 166.79 138.809 166.854C138.744 166.854 138.679 166.919 138.615 166.919C137.904 167.048 137.193 166.919 136.676 166.596C135.836 166.079 135.319 165.239 135.254 164.334C135.19 163.429 135.578 162.525 136.353 161.943C137.581 160.974 139.003 160.328 140.553 159.875C140.747 159.811 140.941 159.746 141.135 159.746L140.553 158.647C140.489 158.647 140.489 158.647 140.424 158.712L140.36 158.777C139.713 158.971 139.067 159.358 138.486 159.746C138.162 160.005 137.775 160.198 137.322 160.263C136.612 160.392 135.965 160.263 135.384 159.94C134.544 159.423 134.027 158.583 133.962 157.678C133.897 156.773 134.35 155.869 135.061 155.287C135.707 154.77 136.482 154.318 137.258 153.995C137.322 153.93 137.387 153.93 137.452 153.93L137.516 153.865C137.645 153.801 137.71 153.801 137.839 153.736L131.377 141.716C128.146 135.707 119.487 135.707 116.191 141.716C116.191 141.716 111.344 150.699 109.729 153.736C109.793 153.801 109.923 153.801 109.987 153.865C110.116 153.93 110.181 153.93 110.31 153.995C111.086 154.318 111.797 154.77 112.508 155.287C113.218 155.804 113.671 156.709 113.606 157.678C113.541 158.647 113.024 159.423 112.184 159.94C111.603 160.328 110.892 160.392 110.246 160.263C109.793 160.198 109.406 160.005 109.083 159.746C108.501 159.294 107.855 158.971 107.208 158.777L107.144 158.712H107.079L106.498 159.811C106.692 159.875 106.821 159.875 107.015 159.94C108.566 160.328 109.987 161.038 111.215 162.008C111.926 162.589 112.378 163.429 112.314 164.399C112.249 165.304 111.732 166.144 110.892 166.661C110.31 166.984 109.664 167.113 109.018 167.048C108.953 167.048 108.824 166.984 108.759 166.984C108.436 166.919 108.113 166.725 107.79 166.531C107.079 166.014 106.368 165.627 105.528 165.433C105.399 165.368 105.27 165.368 105.141 165.368C105.076 165.368 105.011 165.368 104.947 165.304H104.817C104.43 165.239 104.042 165.174 103.59 165.239L101.845 168.47C101.78 168.535 101.78 168.535 101.716 168.535C101.522 168.858 101.457 169.052 101.457 169.052C101.393 169.181 101.393 169.31 101.328 169.439C101.263 169.698 101.134 170.021 101.069 170.279C101.069 170.344 101.069 170.409 101.005 170.473C100.94 170.603 100.94 170.667 100.94 170.796C100.876 171.184 100.811 171.507 100.811 171.895C100.811 172.089 100.811 172.218 100.811 172.412C100.811 172.477 100.811 172.541 100.811 172.67C100.811 172.929 100.811 173.187 100.876 173.446C100.876 173.511 100.876 173.511 100.876 173.575C100.876 173.769 100.94 173.898 100.94 174.092C100.94 174.157 100.94 174.221 101.005 174.286C101.005 174.351 101.069 174.415 101.069 174.48C101.069 174.544 101.134 174.674 101.134 174.738C101.134 174.738 101.134 174.803 101.199 174.803C101.263 174.932 101.263 174.997 101.263 175.126C101.263 175.191 101.263 175.191 101.328 175.255V175.32C101.393 175.449 101.457 175.578 101.457 175.708C101.586 176.031 101.716 176.289 101.909 176.612C101.974 176.742 102.039 176.871 102.168 177C102.168 177.065 102.233 177.065 102.233 177.129C102.297 177.194 102.297 177.259 102.362 177.259C102.75 177.84 103.202 178.357 103.719 178.81L103.784 178.874C103.913 179.003 104.042 179.133 104.236 179.262C104.947 179.843 105.787 180.296 106.756 180.619C107.596 180.877 108.501 181.071 109.47 181.071H137.904C138.873 181.071 139.778 180.942 140.618 180.619C141.523 180.296 142.363 179.843 143.138 179.262C143.268 179.133 143.397 179.068 143.526 178.939L143.591 178.874C144.108 178.422 144.56 177.905 144.948 177.323C145.012 177.259 145.012 177.194 145.077 177.194C145.206 177.065 145.271 176.871 145.4 176.742C145.594 176.483 145.723 176.16 145.852 175.837C145.917 175.772 145.917 175.643 145.982 175.578C145.982 175.514 146.046 175.514 146.046 175.449C146.046 175.449 146.046 175.449 146.046 175.385C146.111 175.191 146.111 175.061 146.176 174.868V174.803C146.176 174.738 146.24 174.674 146.24 174.609C146.305 174.48 146.305 174.351 146.369 174.221C146.434 174.028 146.434 173.898 146.434 173.704C146.434 173.64 146.434 173.64 146.434 173.575C146.434 173.511 146.434 173.446 146.434 173.381C146.434 173.252 146.499 173.187 146.499 173.058C146.628 172.606 146.628 172.541 146.628 172.412ZM116.643 158.906C116.514 160.457 115.48 161.685 114.317 161.879C115.48 162.266 116.256 163.623 116.126 165.174C115.997 166.919 114.705 168.276 113.283 168.212C113.089 168.212 112.96 168.147 112.766 168.147C113.994 167.953 114.963 166.725 115.092 165.174C115.222 163.623 114.446 162.266 113.283 161.879C114.446 161.685 115.48 160.457 115.609 158.906C115.739 157.355 114.963 155.998 113.8 155.61C113.994 155.61 114.123 155.546 114.317 155.61C115.803 155.61 116.837 157.161 116.643 158.906ZM134.35 168.212C132.928 168.341 131.7 166.984 131.506 165.174C131.377 163.623 132.153 162.266 133.316 161.879C132.088 161.685 131.119 160.457 130.989 158.906C130.86 157.161 131.894 155.61 133.251 155.481C133.445 155.481 133.574 155.481 133.768 155.481C132.605 155.869 131.829 157.226 131.959 158.777C132.088 160.328 133.057 161.555 134.285 161.749C133.122 162.137 132.346 163.494 132.476 165.045C132.605 166.596 133.639 167.824 134.802 168.018C134.673 168.212 134.544 168.212 134.35 168.212Z" fill="#060607"/>
<path d="M112.377 157.55C112.377 158.067 112.054 158.519 111.602 158.778C111.278 158.972 110.891 159.036 110.568 158.972C110.374 158.907 110.115 158.842 109.921 158.713C109.275 158.196 108.5 157.808 107.724 157.55C107.724 157.55 107.724 157.55 107.66 157.55C107.595 157.485 107.466 157.485 107.401 157.485C107.207 157.421 107.013 157.356 106.755 157.356C102.748 156.516 98.7418 158.907 97.5786 162.784C99.6465 161.363 102.102 160.652 104.622 160.846C104.752 160.846 104.816 160.846 104.946 160.846C105.01 160.846 105.075 160.846 105.075 160.846C105.269 160.846 105.463 160.91 105.721 160.91C105.786 160.91 105.85 160.91 105.915 160.975C106.173 161.04 106.432 161.104 106.69 161.169C108.047 161.557 109.34 162.138 110.503 162.978C110.891 163.301 111.149 163.754 111.085 164.271C111.085 164.788 110.762 165.24 110.309 165.498C109.986 165.692 109.598 165.757 109.275 165.692H109.211C109.017 165.628 108.823 165.563 108.629 165.434C107.789 164.788 106.884 164.4 105.915 164.077C105.786 164.012 105.656 164.012 105.463 163.948C105.333 163.948 105.204 163.883 105.139 163.883C104.881 163.818 104.622 163.818 104.364 163.818C103.653 163.754 102.942 163.818 102.231 163.948C102.167 163.948 102.038 164.012 101.973 164.012C101.908 164.012 101.844 164.012 101.779 164.077C100.874 164.335 100.034 164.723 99.2588 165.305C98.031 166.209 97.7079 167.889 98.4833 169.182C98.548 169.311 98.6126 169.376 98.6772 169.505C98.7418 169.57 98.8065 169.699 98.8711 169.764C99.4527 170.539 100.164 171.185 101.004 171.702C101.004 172.985 101.004 171.78 101.004 172.956C101.004 173.147 101.004 172.956 101.004 173.147V173.559C101.004 174.5 101.004 170.761 101.004 171.702C101.004 171.702 101.033 174.529 101.26 174.926C101.26 174.926 102.098 175.705 99.0649 174.222C97.4494 173.124 96.157 171.702 95.3169 169.893C94.7999 168.794 94.4122 167.566 94.2829 166.403C94.2829 166.274 94.2183 166.08 94.2183 165.951C94.089 164.335 94.3475 162.655 94.9291 161.104C96.6739 156.516 101.521 153.608 106.432 154.19C107.401 154.319 108.306 154.513 109.211 154.9C109.34 154.965 109.469 154.965 109.598 155.03C109.663 155.03 109.663 155.094 109.728 155.094C109.792 155.094 109.792 155.159 109.857 155.159C110.568 155.482 111.214 155.87 111.86 156.387C112.183 156.516 112.442 157.033 112.377 157.55Z" fill="#D9DEED"/>
<path d="M134.97 157.55C134.97 158.067 135.293 158.519 135.745 158.778C136.069 158.972 136.456 159.036 136.779 158.972C136.973 158.907 137.232 158.842 137.426 158.713C138.072 158.196 138.847 157.808 139.623 157.55C139.623 157.55 139.623 157.55 139.687 157.55C139.752 157.485 139.881 157.485 139.946 157.485C140.14 157.421 140.334 157.356 140.592 157.356C144.599 156.516 148.605 158.907 149.768 162.784C147.701 161.363 145.245 160.652 142.725 160.846C142.595 160.846 142.531 160.846 142.402 160.846C142.337 160.846 142.272 160.846 142.272 160.846C142.078 160.846 141.885 160.91 141.626 160.91C141.561 160.91 141.497 160.91 141.432 160.975C141.174 161.04 140.915 161.104 140.657 161.169C139.3 161.557 138.007 162.138 136.844 162.978C136.456 163.301 136.198 163.754 136.262 164.271C136.262 164.788 136.586 165.24 137.038 165.498C137.361 165.692 137.749 165.757 138.072 165.692H138.136C138.33 165.628 138.524 165.563 138.718 165.434C139.558 164.788 140.463 164.4 141.432 164.077C141.561 164.012 141.691 164.012 141.885 163.948C142.014 163.948 142.143 163.883 142.208 163.883C142.466 163.818 142.725 163.818 142.983 163.818C143.694 163.754 144.405 163.818 145.116 163.948C145.18 163.948 145.309 164.012 145.374 164.012C145.439 164.012 145.503 164.012 145.568 164.077C146.473 164.335 147.313 164.723 148.088 165.305C149.316 166.209 149.639 167.889 148.864 169.182C148.799 169.311 148.734 169.376 148.67 169.505C148.605 169.57 148.541 169.699 148.476 169.764C147.894 170.539 147.184 171.185 146.343 171.702C146.343 172.985 146.343 171.78 146.343 172.956C146.343 173.147 146.343 172.956 146.343 173.147V173.559C146.343 174.5 146.343 170.761 146.343 171.702C146.343 171.702 146.314 174.529 146.087 174.926C146.087 174.926 145.249 175.705 148.282 174.222C149.898 173.124 151.19 171.702 152.03 169.893C152.547 168.794 152.935 167.566 153.064 166.403C153.064 166.274 153.129 166.08 153.129 165.951C153.258 164.335 153 162.655 152.418 161.104C150.673 156.516 145.826 153.608 140.915 154.19C139.946 154.319 139.041 154.513 138.136 154.9C138.007 154.965 137.878 154.965 137.749 155.03C137.684 155.03 137.684 155.094 137.619 155.094C137.555 155.094 137.555 155.159 137.49 155.159C136.779 155.482 136.133 155.87 135.487 156.387C135.164 156.516 134.905 157.033 134.97 157.55Z" fill="#D9DEED"/>
</svg>
